<svg height="512pt" viewBox="0 0 512 512" width="512pt" xmlns="http://www.w3.org/2000/svg"><path d="m512 0v331l-30 30h-452l-30-30v-331zm0 0" fill="#3e5959"/><path d="m512 0v331l-30 30h-226v-361zm0 0" fill="#293939"/><path d="m30 30h452v271h-452zm0 0" fill="#64e1dc"/><path d="m256 30h226v271h-226zm0 0" fill="#00c8c8"/><path d="m361 497v15h-210v-15c0-42 13.800781-84.402344 39-118l9-12h114l9 12c25.199219 33.597656 39 76 39 118zm0 0" fill="#bbdcff"/><path d="m322 379c25.199219 33.597656 39 76 39 118v15h-105v-145h57zm0 0" fill="#9abadb"/><path d="m241 421h30v30h-30zm0 0" fill="#64e1dc"/><path d="m112.597656 91h106.804688v30h-106.804688zm0 0" fill="#e0f4ff"/><path d="m271 91h90v30h-90zm0 0" fill="#1cadb5"/><path d="m271 211h90v30h-90zm0 0" fill="#1cadb5"/><path d="m112.597656 211h106.804688v30h-106.804688zm0 0" fill="#ff637b"/><g fill="#1cadb5"><path d="m391 91h30v30h-30zm0 0"/><path d="m391 211h30v30h-30zm0 0"/><path d="m391 151h30v30h-30zm0 0"/><path d="m271 151h90v30h-90zm0 0"/></g><path d="m256 421h15v30h-15zm0 0" fill="#00c8c8"/><path d="m0 331h512v60h-512zm0 0" fill="#e0f4ff"/><path d="m256 331h256v60h-256zm0 0" fill="#bbdcff"/><path d="m166 91h53.402344v30h-53.402344zm0 0" fill="#e63950"/><path d="m166 211h53.402344v30h-53.402344zm0 0" fill="#bbdcff"/><path d="m241 263.199219v7.800781h-30v-7.800781c0-33-17.101562-63-45-79.800781-2.101562-1.5-4.199219-2.699219-6.597656-3.898438-42.300782-21-68.402344-63.601562-68.402344-110.699219v-7.800781h30v7.800781c0 33 17.101562 63 45 79.796875 2.101562 1.5 4.199219 2.703125 6.597656 3.902344 42.300782 21 68.402344 63.597656 68.402344 110.699219zm0 0" fill="#3e5959"/><path d="m241 263.199219v7.800781h-30v-7.800781c0-33-17.101562-63-45-79.800781v-34.796876c2.101562 1.5 4.199219 2.699219 6.597656 3.898438 42.300782 21 68.402344 63.597656 68.402344 110.699219zm0 0" fill="#293939"/><path d="m241 61v7.800781c0 47.097657-26.101562 89.699219-68.402344 110.699219-2.398437 1.199219-4.496094 2.398438-6.597656 3.898438-27.898438 16.800781-45 46.800781-45 79.800781v7.800781h-30v-7.800781c0-47.097657 26.101562-89.699219 68.402344-110.699219 2.398437-1.199219 4.496094-2.402344 6.597656-3.898438 27.898438-16.800781 45-46.800781 45-79.800781v-7.800781zm0 0" fill="#537983"/><path d="m241 61v7.800781c0 47.097657-26.101562 89.699219-68.402344 110.699219-2.398437 1.199219-4.496094 2.398438-6.597656 3.898438v-34.800782c27.898438-16.796875 45-46.796875 45-79.796875v-7.800781zm0 0" fill="#3e5959"/></svg>