<?xml version="1.0" encoding="iso-8859-1"?>
<!-- Generator: Adobe Illustrator 19.0.0, SVG Export Plug-In . SVG Version: 6.00 Build 0)  -->
<svg version="1.1" id="Capa_1" xmlns="http://www.w3.org/2000/svg" xmlns:xlink="http://www.w3.org/1999/xlink" x="0px" y="0px"
	 viewBox="0 0 512 512" style="enable-background:new 0 0 512 512;" xml:space="preserve">
<g>
	<polygon style="fill:#BDC3C7;" points="308.966,459.034 203.034,459.034 211.862,388.414 300.138,388.414 	"/>
	<path style="fill:#8697CB;" d="M512,44.138v300.138H0V44.138c0.028-9.739,7.916-17.627,17.655-17.655h476.69
		C504.084,26.511,511.972,34.399,512,44.138z"/>
	<path style="fill:#ECF0F1;" d="M333.366,176.552h-50.884c-4.875,0-8.828-3.952-8.828-8.828s3.952-8.828,8.828-8.828h50.884
		l51.099-25.552c4.358-2.162,9.644-0.391,11.82,3.961c2.176,4.351,0.421,9.643-3.923,11.832l-51.103,25.552
		C338.807,175.912,336.106,176.549,333.366,176.552z"/>
	<circle style="fill:#65DDB9;" cx="423.724" cy="114.759" r="44.138"/>
	<g>
		<path style="fill:#527F72;" d="M414.897,114.759c-0.592-0.02-1.183-0.079-1.767-0.177c-0.552-0.098-1.086-0.277-1.586-0.53
			c-0.565-0.194-1.101-0.462-1.595-0.797c-0.44-0.35-0.879-0.703-1.319-1.056c-0.798-0.844-1.427-1.833-1.854-2.914
			c-0.943-2.138-0.943-4.573,0-6.711c0.426-1.08,1.055-2.067,1.854-2.909l1.319-1.06c0.494-0.335,1.03-0.604,1.595-0.797
			c0.499-0.254,1.034-0.432,1.587-0.526c2.906-0.549,5.898,0.339,8.035,2.383c2.546,2.525,3.312,6.34,1.937,9.653
			C421.725,112.628,418.483,114.779,414.897,114.759z"/>
		<path style="fill:#527F72;" d="M432.552,132.414c-2.337-0.035-4.575-0.949-6.268-2.56c-1.629-1.682-2.546-3.927-2.56-6.268
			c0.014-1.155,0.254-2.296,0.707-3.358c0.448-1.068,1.075-2.052,1.854-2.909l1.319-1.06c0.494-0.335,1.03-0.604,1.595-0.797
			c0.499-0.254,1.034-0.431,1.586-0.526c1.136-0.222,2.304-0.222,3.44,0c0.586,0.081,1.154,0.259,1.681,0.526
			c0.562,0.194,1.095,0.462,1.586,0.797c0.44,0.353,0.888,0.707,1.328,1.06c0.779,0.857,1.406,1.841,1.854,2.909
			c0.453,1.062,0.693,2.203,0.707,3.358c-0.018,2.34-0.935,4.584-2.56,6.268c-0.44,0.353-0.888,0.707-1.328,1.056
			c-0.491,0.335-1.024,0.603-1.586,0.797c-0.528,0.266-1.096,0.445-1.681,0.53C433.672,132.339,433.113,132.398,432.552,132.414z"/>
	</g>
	<path style="fill:#ECF0F1;" d="M79.457,229.517c-3.804,0.003-7.183-2.432-8.384-6.042c-1.201-3.61,0.046-7.583,3.095-9.859
		l65.784-49.095c4.651-3.653,10.396-5.635,16.31-5.625h55.599c4.875,0,8.828,3.952,8.828,8.828s-3.952,8.828-8.828,8.828h-55.599
		c-2.004,0.001-3.948,0.684-5.513,1.935l-66.022,49.276C83.208,228.903,81.358,229.519,79.457,229.517z"/>
	<path style="fill:#65DDB9;" d="M52.966,203.034h114.759c4.875,0,8.828,3.952,8.828,8.828v52.966c0,4.875-3.952,8.828-8.828,8.828
		H52.966c-4.875,0-8.828-3.952-8.828-8.828v-52.966C44.138,206.987,48.09,203.034,52.966,203.034z"/>
	<g>
		<path style="fill:#527F72;" d="M79.448,247.172c-1.155-0.014-2.296-0.254-3.358-0.707c-1.068-0.449-2.051-1.076-2.91-1.853
			c-3.414-3.481-3.414-9.054,0-12.534c0.857-0.78,1.841-1.409,2.909-1.858c3.289-1.384,7.088-0.651,9.626,1.857
			c2.546,2.525,3.312,6.341,1.937,9.653C86.277,245.042,83.035,247.193,79.448,247.172z"/>
		<path style="fill:#527F72;" d="M141.241,247.172h-26.483c-4.875,0-8.828-3.952-8.828-8.828c0-4.875,3.952-8.828,8.828-8.828
			h26.483c4.875,0,8.828,3.952,8.828,8.828C150.069,243.22,146.117,247.172,141.241,247.172z"/>
	</g>
	<path style="fill:#E64C3C;" d="M262.901,220.569l-10.832-7.224c-0.046-0.031-0.1-0.031-0.147-0.06
		c-0.05-0.032-0.074-0.085-0.125-0.116c-8.651-5.319-31.108-23.065-31.108-41.03c0-17.871,22.461-35.681,31.116-41.039l0.095-0.089
		c0.053-0.034,0.114-0.043,0.168-0.079l10.832-7.224c17.766-11.814,28.432-31.742,28.409-53.077c0-4.875-3.952-8.828-8.828-8.828
		s-8.828,3.952-8.828,8.828c0.016,15.431-7.698,29.843-20.547,38.388l-10.687,7.128c-2.389,1.485-39.386,24.935-39.386,55.993
		s36.996,54.508,39.386,55.993l10.687,7.128c12.849,8.544,20.563,22.957,20.547,38.387c0,4.875,3.952,8.828,8.828,8.828
		s8.828-3.952,8.828-8.828C291.333,252.311,280.667,232.383,262.901,220.569z"/>
	<path style="fill:#285680;" d="M291.31,172.138c0-31.058-36.996-54.508-39.386-55.993l-10.687-7.128
		c-12.849-8.544-20.563-22.957-20.547-38.387c0-4.875-3.952-8.828-8.828-8.828c-4.875,0-8.828,3.952-8.828,8.828
		c-0.023,21.335,10.644,41.264,28.409,53.078l10.832,7.224c0.052,0.035,0.113,0.044,0.165,0.078l0.106,0.099
		c8.651,5.319,31.108,23.064,31.108,41.03c0,17.871-22.461,35.681-31.116,41.039c-0.046,0.029-0.068,0.078-0.114,0.107
		c-0.046,0.029-0.102,0.03-0.149,0.061l-10.832,7.224c-17.766,11.814-28.432,31.742-28.409,53.077c0,4.875,3.952,8.828,8.828,8.828
		c4.875,0,8.828-3.952,8.828-8.828c-0.016-15.431,7.698-29.843,20.547-38.388l10.687-7.128
		C254.314,226.646,291.31,203.196,291.31,172.138z"/>
	<g>
		<path style="fill:#95A5A5;" d="M512,317.793v61.793c-0.029,9.739-7.916,17.626-17.655,17.655H17.655
			C7.916,397.213,0.029,389.325,0,379.586v-61.793H512z"/>
		<path style="fill:#95A5A5;" d="M194.207,450.207h123.586c9.751,0,17.655,7.904,17.655,17.655l0,0
			c0,9.751-7.905,17.655-17.655,17.655H194.207c-9.751,0-17.655-7.905-17.655-17.655l0,0
			C176.552,458.111,184.456,450.207,194.207,450.207z"/>
	</g>
	<path style="fill:#7F8C8D;" d="M256,370.759c-4.875,0-8.828-3.952-8.828-8.828v-8.828c0-4.875,3.952-8.828,8.828-8.828
		s8.828,3.952,8.828,8.828v8.828C264.828,366.806,260.875,370.759,256,370.759z"/>
</g>
<g>
</g>
<g>
</g>
<g>
</g>
<g>
</g>
<g>
</g>
<g>
</g>
<g>
</g>
<g>
</g>
<g>
</g>
<g>
</g>
<g>
</g>
<g>
</g>
<g>
</g>
<g>
</g>
<g>
</g>
</svg>
