<svg id="Layer_1" enable-background="new 0 0 256 256" height="512" viewBox="0 0 256 256" width="512" xmlns="http://www.w3.org/2000/svg"><g><g><g><path d="m212.5 251.75h-169c-5.523 0-10-4.477-10-10v-227.5c0-5.523 4.477-10 10-10h169c5.523 0 10 4.477 10 10v227.5c0 5.523-4.477 10-10 10z" fill="#afafaf"/></g><g><path d="m44.5 40.75h167v185.58h-167z" fill="#72c1e8"/></g><g><path d="m44.5 15.25h167v25.5h-167z" fill="#f0c020"/></g><g><circle cx="33.5" cy="56.46" r="2.5"/><path d="m212.5 1.75h-169c-6.891 0-12.5 5.61-12.5 12.5v32.21c0 1.38 1.12 2.51 2.5 2.51s2.5-1.13 2.5-2.51c0 0 0 0 0-.01v-32.2c.01-4.13 3.37-7.49 7.5-7.5h169c4.13.01 7.49 3.37 7.5 7.5v227.5c-.01 4.13-3.37 7.49-7.5 7.5h-169c-4.13-.01-7.49-3.37-7.5-7.5v-175.29c0-1.37-1.12-2.49-2.5-2.49s-2.5 1.12-2.5 2.49v175.29c0 6.89 5.609 12.5 12.5 12.5h169c6.89 0 12.5-5.61 12.5-12.5v-227.5c0-6.89-5.61-12.5-12.5-12.5z"/><path d="m214 15.25c0-1.378-1.11-2.5-2.5-2.5-3.479 0-163.402 0-167 0-1.361 0-2.5 1.116-2.5 2.5v211.08c0 1.358 1.09 2.5 2.5 2.5h167c1.371 0 2.5-1.1 2.5-2.5v-29.16c0-1.38-1.12-2.5-2.5-2.5s-2.5 1.12-2.5 2.5v26.66h-162v-180.58h162v133.92c0 1.37 1.12 2.5 2.5 2.5s2.5-1.13 2.5-2.5c0-5.237 0-149.872 0-161.92zm-167 23v-20.5h32.176l6.295 20.5zm162 0h-118.299l-6.295-20.5h124.594z"/><path d="m211.5 184.67c-1.38 0-2.5 1.12-2.5 2.5 0 1.37 1.12 2.49 2.5 2.49s2.5-1.12 2.5-2.49c0-1.38-1.12-2.5-2.5-2.5z"/><path d="m120 236.542c-1.381 0-2.5 1.119-2.5 2.5s1.119 2.5 2.5 2.5h16c1.381 0 2.5-1.119 2.5-2.5s-1.119-2.5-2.5-2.5z"/><path d="m187.33 30.17h8.34c1.37 0 2.49-1.13 2.49-2.5 0-1.38-1.12-2.5-2.49-2.5h-8.34c-1.38 0-2.5 1.12-2.5 2.5 0 1.37 1.12 2.5 2.5 2.5z"/><path d="m71.83 25.5h-16.16c-1.38 0-2.5 1.12-2.5 2.5s1.12 2.5 2.5 2.5h16.16c1.38 0 2.5-1.12 2.5-2.5s-1.12-2.5-2.5-2.5z"/></g><g><path d="m198.333 215.962h-125.538c-1.381 0-2.5-1.119-2.5-2.5s1.119-2.5 2.5-2.5h123.038v-155.962c0-1.381 1.119-2.5 2.5-2.5s2.5 1.119 2.5 2.5v158.462c0 1.381-1.119 2.5-2.5 2.5zm-135.538 0h-7.128c-1.381 0-2.5-1.119-2.5-2.5s1.119-2.5 2.5-2.5h7.128c1.381 0 2.5 1.119 2.5 2.5s-1.119 2.5-2.5 2.5z" fill="#c5e5ff"/></g></g><g><g><path d="m82.5 190.09c-12.526-12.525-11.478-32.439.649-43.83.971-.9 2.631-.85 3.53.12.92.96.933 2.551-.11 3.53-10.087 9.453-11.063 26.087-.529 36.64 9.751 9.752 24.949 9.729 34.779 1.25 1-.86 2.66-.74 3.53.26.9 1.05.78 2.63-.26 3.53-11.721 10.099-29.898 10.191-41.589-1.5z"/></g><g><path d="m154.841 180.542c-.956-2.731-3.943-4.173-6.678-3.217l-4.969 1.738-7.285-21.888c-.713-2.141-2.716-3.586-4.974-3.586h-23.322l-1.815-10.374h24.493c2.895 0 5.242-2.347 5.242-5.242s-2.347-5.242-5.242-5.242h-26.326l-1.532-8.756c-.497-2.844-3.206-4.76-6.067-4.26-2.851.499-4.759 3.215-4.26 6.066l5.939 33.952c.439 2.509 2.617 4.339 5.163 4.339h23.947l7.771 23.35c.929 2.788 3.959 4.254 6.704 3.292l9.992-3.494c2.734-.955 4.175-3.945 3.219-6.678z" fill="#f0c020"/></g><g><circle cx="100.776" cy="103.211" fill="#ffb69f" r="9.5"/></g><g><g><path d="m179.881 85.513c.925-14.75-11.234-26.909-25.984-25.984-12.122.76-21.984 10.556-22.821 22.673-.323 4.67.669 9.082 2.639 12.909.483.938.576 2.027.245 3.028l-3.617 10.928 10.928-3.617c1.001-.331 2.09-.238 3.028.245 3.827 1.97 8.24 2.962 12.909 2.639 12.117-.838 21.913-10.699 22.673-22.821z" fill="#13bf6d"/></g><g><path d="m142.23 99.682c-1.62 0-2.809-1.515-2.433-3.084.106-.443.16-.901.16-1.362 0-1.381 1.119-2.518 2.5-2.518s2.5 1.101 2.5 2.482c0 .89-.101 1.741-.299 2.566-.274 1.145-1.299 1.916-2.428 1.916zm-4.806-13.896c-.692-9.855 6.822-18.096 16.309-18.69 1.383-.088 2.565.962 2.651 2.339.086 1.378-.961 2.565-2.339 2.651-6.783.425-12.136 6.325-11.633 13.347.098 1.377-.94 2.573-2.317 2.67-1.364.099-2.572-.93-2.671-2.317z" fill="#76ffba"/></g><g><path d="m127.97 108.28 3.62-10.93c.1-.351.079-.757-.1-1.1-2.177-4.22-3.234-9.048-2.91-14.22.939-13.4 11.75-24.14 25.149-24.99 7.73-.562 15.739 2.402 21.41 8.46.94 1.01.891 2.59-.109 3.53-.971.91-2.631.86-3.54-.11-4.67-4.981-10.992-7.29-17.44-6.9-10.93.68-19.74 9.43-20.48 20.36-.29 3.79.451 7.871 2.37 11.59.799 1.544.912 3.371.4 4.93-.015.031-2.049 6.197-2.06 6.23l6.199-2.05c1.62-.54 3.44-.39 4.96.39 3.711 1.916 7.506 2.6 11.601 2.37 10.92-.74 19.67-9.55 20.35-20.48.08-1.37 1.24-2.43 2.641-2.34 1.482.089 2.427 1.369 2.35 2.64-.86 13.41-11.61 24.23-25 25.17-5.261.324-10.063-.772-14.23-2.91-.34-.18-.729-.22-1.09-.1l-10.93 3.62c-1.877.649-3.823-1.15-3.161-3.16zm48.179-31.76c-.472-1.296.199-2.721 1.511-3.2 1.27-.45 2.739.25 3.189 1.52.01 0 .01.01.01.01.461 1.316-.246 2.735-1.52 3.18-1.283.475-2.731-.216-3.19-1.51z"/></g></g><g><path d="m132.56 188.21-7.21-21.64h-22.14c-3.771 0-6.98-2.69-7.63-6.41l-5.94-33.95c-.72-4.302 2.133-8.222 6.28-8.95 4.129-.752 8.216 1.986 8.979 6.28l1.16 6.69h24.23c4.27 0 7.74 3.48 7.74 7.75 0 4.26-3.471 7.73-7.74 7.74h-21.519l.94 5.37h21.229c3.33 0 6.29 2.13 7.341 5.3l6.479 19.47 2.57-.89c4.121-1.44 8.48.787 9.87 4.75 1.408 4.03-.723 8.444-4.75 9.86l-10 3.5c-4.188 1.429-8.538-.831-9.889-4.87zm-35.76-66.03c-1.319.223-2.461 1.449-2.24 3.15l.01.02 5.94 33.95c.23 1.32 1.36 2.27 2.7 2.27h23.95c1.069 0 2.029.69 2.37 1.71l7.77 23.35c.494 1.495 2.118 2.23 3.51 1.72l9.99-3.49c1.321-.461 2.204-1.937 1.68-3.5v-.01c-.502-1.405-2.054-2.163-3.489-1.67l-4.971 1.74c-1.305.463-2.752-.233-3.2-1.57l-7.279-21.89c-.38-1.12-1.42-1.87-2.601-1.87h-23.33c-1.22 0-2.25-.87-2.46-2.07l-1.81-10.37c-.278-1.56.935-2.94 2.46-2.94h24.49c1.51 0 2.74-1.23 2.74-2.73 0-1.51-1.23-2.75-2.74-2.75h-26.33c-1.21 0-2.25-.87-2.46-2.07l-1.53-8.75c-.25-1.478-1.708-2.52-3.17-2.23z"/></g><g><path d="m100.78 115.21c-6.62 0-12.011-5.38-12.011-12 0-6.61 5.391-12 12.011-12 6.609 0 11.989 5.39 12 12-.01 6.62-5.39 12-12 12zm0-19c-3.86.01-7 3.15-7.011 7 .011 3.85 3.15 6.99 7.011 7 3.85-.01 6.989-3.15 7-7-.01-3.85-3.15-6.99-7-7z"/></g><g><path d="m151.771 91.79-5.749-5.749c-.977-.977-.977-2.56 0-3.536.977-.977 2.559-.976 3.535 0l3.981 3.981 8.95-8.95c.977-.977 2.559-.977 3.535 0 .977.976.977 2.559 0 3.535l-10.716 10.719c-.977.976-2.558.976-3.536 0z"/></g></g></g></svg>