<svg height="496pt" viewBox="0 0 496 496" width="496pt" xmlns="http://www.w3.org/2000/svg"><g fill="#f0bc5e"><path d="m296 440h-272c-8.839844 0-16-7.160156-16-16v-48h304v48c0 8.839844-7.160156 16-16 16zm0 0"/><path d="m443.199219 398.398438v-12.796876l12.800781-9.601562 12.800781 9.601562v12.796876l-12.800781 9.601562zm0 0"/><path d="m411.199219 342.398438v-12.796876l12.800781-9.601562 12.800781 9.601562v12.796876l-12.800781 9.601562zm0 0"/><path d="m379.199219 398.398438v-12.796876l12.800781-9.601562 12.800781 9.601562v12.796876l-12.800781 9.601562zm0 0"/></g><path d="m272 400h16v16h-16zm0 0"/><path d="m240 400h16v16h-16zm0 0"/><path d="m208 400h16v16h-16zm0 0"/><path d="m296 200h-59.585938c2.289063-7.289062 3.585938-15.222656 3.585938-24 0-43.679688-31.296875-67.121094-64.753906-88 33.457031-20.878906 64.753906-44.320312 64.753906-88h-16c0 5.726562-.769531 11.015625-2.070312 16h-123.859376c-1.300781-4.984375-2.070312-10.273438-2.070312-16h-16c0 43.679688 31.296875 67.121094 64.753906 88-33.457031 20.878906-64.753906 44.320312-64.753906 88 0 8.777344 1.296875 16.710938 3.585938 24h-59.585938c-13.230469 0-24 10.769531-24 24v200c0 13.230469 10.769531 24 24 24h80v32h-48v16h208v-16h-48v-32h80c13.230469 0 24-10.769531 24-24v-200c0-13.230469-10.769531-24-24-24zm-178.390625 104h84.773437c5.023438 4.945312 9.410157 10.214844 12.875 16h-110.515624c3.457031-5.785156 7.84375-11.054688 12.867187-16zm19.703125-16c7.167969-5.007812 14.839844-9.808594 22.6875-14.617188 7.847656 4.808594 15.519531 9.609376 22.6875 14.617188zm22.6875-33.382812c-11.921875-7.304688-23.464844-14.578126-33.390625-22.617188h66.773437c-9.917968 8.039062-21.460937 15.3125-33.382812 22.617188zm49.59375-38.617188h-99.1875c-3.941406-4.929688-7.207031-10.230469-9.628906-16h118.445312c-2.414062 5.769531-5.679687 11.070312-9.628906 16zm-113.59375-40c0-2.769531.199219-5.414062.511719-8h126.976562c.3125 2.585938.511719 5.230469.511719 8s-.199219 5.414062-.511719 8h-126.976562c-.3125-2.585938-.511719-5.230469-.511719-8zm97.390625-56h-66.773437c9.925781-8.039062 21.472656-15.3125 33.390624-22.617188 11.914063 7.304688 23.457032 14.578126 33.382813 22.617188zm-33.390625-41.382812c-7.847656-4.808594-15.519531-9.609376-22.6875-14.617188h45.375c-7.167969 5.007812-14.839844 9.808594-22.6875 14.617188zm55.257812-46.617188c-3.464843 5.785156-7.851562 11.054688-12.875 16h-84.773437c-5.023437-4.945312-9.410156-10.214844-12.875-16zm-104.851562 104h99.195312c3.941407 4.929688 7.207032 10.230469 9.628907 16h-118.453125c2.414062-5.769531 5.679687-11.070312 9.628906-16zm-86.40625 80h66.785156c11.992188 20.152344 32.519532 34.617188 53.96875 48-33.457031 20.878906-64.753906 44.320312-64.753906 88h16c0-5.726562.769531-11.015625 2.070312-16h123.867188c1.292969 4.984375 2.0625 10.273438 2.0625 16h16c0-43.679688-31.296875-67.121094-64.753906-88 21.457031-13.382812 41.976562-27.847656 53.96875-48h66.785156c4.414062 0 8 3.59375 8 8v144h-288v-144c0-4.40625 3.585938-8 8-8zm272 216h-128v16h32v32h-80v-32h32v-16h-128c-4.414062 0-8-3.59375-8-8v-40h288v40c0 4.40625-3.585938 8-8 8zm0 0"/><path d="m384 224c61.761719 0 112-50.238281 112-112s-50.238281-112-112-112-112 50.238281-112 112 50.238281 112 112 112zm18.328125-95.015625 13.441406 3.839844c-1.015625 23.199219-9.242187 45.085937-23.769531 62.992187v-56.503906zm45.671875 54.367187c-12.128906 10.886719-26.976562 18.769532-43.457031 22.375 15.824219-19.550781 25.136719-43.222656 27-68.398437l4.855469 1.382813c6.832031 1.953124 11.601562 8.28125 11.601562 15.386718zm-82.328125-54.367187 10.328125 10.328125v56.503906c-14.527344-17.90625-22.742188-39.792968-23.769531-62.992187zm-29.214844 8.351563c1.863281 25.167968 11.175781 48.839843 27 68.398437-16.472656-3.605469-31.328125-11.488281-43.457031-22.375v-29.246094c0-7.105469 4.777344-13.433593 11.601562-15.386719zm47.542969-121.335938c52.9375 0 96 43.0625 96 96 0 19.558594-5.910156 37.761719-16 52.953125v-10.847656c0-14.21875-9.542969-26.867188-23.207031-30.769531l-32.792969-9.367188v-17.96875h-16v20.6875l-8 8-8-8v-20.6875h-16v17.96875l-32.792969 9.367188c-13.664062 3.894531-23.207031 16.550781-23.207031 30.769531v10.847656c-10.089844-15.191406-16-33.386719-16-52.953125 0-52.9375 43.0625-96 96-96zm0 0"/><path d="m464 316-27.105469-20.328125 30.632813-25.527344-10.246094-12.289062-38.257812 31.878906-26.75 20.066406-33.539063-27.945312-10.246094 12.289062 35.511719 29.609375v24.246094l-32 24v40l27.105469 20.328125-30.632813 25.527344 10.246094 12.289062 38.257812-31.878906 27.023438-20.265625 32 24 40-30v-40l-32-24zm-64 8 24-18 24 18v24l-24 18-24-18zm-32 56 24-18 24 18v24l-24 18-24-18zm112 24-24 18-24-18v-24l24-18 24 18zm0 0"/><path d="m344 304c-13.230469 0-24-10.769531-24-24s10.769531-24 24-24 24 10.769531 24 24-10.769531 24-24 24zm0 0" fill="#f0bc5e"/><path d="m472 280c-13.230469 0-24-10.769531-24-24s10.769531-24 24-24 24 10.769531 24 24-10.769531 24-24 24zm0 0" fill="#f0bc5e"/><path d="m344 496c-13.230469 0-24-10.769531-24-24s10.769531-24 24-24 24 10.769531 24 24-10.769531 24-24 24zm0 0" fill="#f0bc5e"/><path d="m384 112c-17.648438 0-32-14.351562-32-32v-16c0-17.648438 14.351562-32 32-32s32 14.351562 32 32v16c0 17.648438-14.351562 32-32 32zm0 0" fill="#f0bc5e"/></svg>