<?xml version="1.0" encoding="iso-8859-1"?>
<!-- Generator: Adobe Illustrator 19.0.0, SVG Export Plug-In . SVG Version: 6.00 Build 0)  -->
<svg version="1.1" id="Capa_1" xmlns="http://www.w3.org/2000/svg" xmlns:xlink="http://www.w3.org/1999/xlink" x="0px" y="0px"
	 viewBox="0 0 512 512" style="enable-background:new 0 0 512 512;" xml:space="preserve">
<g>
	<g transform="translate(1 1)">
		<g>
			<polygon style="fill:#558B30;" points="7.533,152.6 146.712,181.869 144.067,182.467 135.533,180.675 7.533,153.709 			"/>
			<polygon style="fill:#558B30;" points="502.467,186.733 502.467,502.467 476.867,497.347 476.867,182.467 353.219,157.72 
				355.608,157.379 			"/>
		</g>
		<g>
			<polygon style="fill:#8BC34A;" points="476.867,182.467 476.867,497.347 340.333,470.04 331.8,468.333 329.752,468.76 
				323.267,470.125 226.413,490.52 209.091,494.189 178.2,500.675 169.667,502.467 161.133,500.675 146.712,497.603 7.533,468.333 
				7.533,153.709 135.533,180.675 144.067,182.467 146.712,181.869 161.133,184.941 169.667,186.733 178.2,184.941 188.269,182.808 
				326.253,161.816 335.128,160.451 335.213,160.451 353.219,157.72 			"/>
			<polygon style="fill:#8BC34A;" points="476.867,497.347 476.867,498.2 329.752,468.76 331.8,468.333 340.333,470.04 			"/>
		</g>
		<path style="fill:#C52828;" d="M370.091,105.372c0,44.13-69.322,158.708-94.736,196.085c-2.118,2.976-5.544,4.743-9.196,4.743
			c-3.652,0-7.079-1.767-9.196-4.743c-25.414-37.377-94.736-151.955-94.736-196.085c0-54.035,46.532-97.839,103.932-97.839
			S370.091,51.337,370.091,105.372z"/>
		<path style="fill:#F44335;" d="M343.397,105.372c0,44.13-57.938,158.708-79.179,196.085c-1.459,2.907-4.433,4.743-7.686,4.743
			s-6.227-1.835-7.686-4.743c-21.241-37.377-79.179-151.955-79.179-196.085c0-54.035,38.891-97.839,86.865-97.839
			C304.506,7.533,343.397,51.337,343.397,105.372z"/>
		<circle style="fill:#FFFFFF;" cx="266.179" cy="106.452" r="42.667"/>
	</g>
	<g>
		<path d="M505.142,179.367l-136.801-27.348c6.318-14.466,10.134-29.9,11.284-45.644C379.625,47.717,329.175,0,267.158,0
			S154.692,47.717,154.692,106.375c0,17.254,9.303,43.373,22.253,71.312l-6.281,1.325L10.292,145.25
			c-2.516-0.529-5.137,0.105-7.133,1.725c-1.997,1.62-3.157,4.054-3.158,6.625v315.733c0.001,4.035,2.827,7.518,6.775,8.35
			l162.133,34.133c1.159,0.244,2.357,0.244,3.517,0l160.42-33.772l168.946,33.789c0.552,0.109,1.112,0.165,1.675,0.167
			c4.713-0.001,8.533-3.821,8.533-8.533V187.733C511.998,183.667,509.128,180.167,505.142,179.367z M225.085,483.29
			c-12.147-21.813-27.629-41.594-45.885-58.626V295.425c12.022,15.665,22.438,32.5,31.092,50.25
			c20.328,38.924,38.16,72.644,113.975,80.194v36.539L225.085,483.29z M17.067,268.413c30.706-14.645,96.563-37.079,145.067,8.477
			v132.777c-43.232-33.357-92.485-58.073-145.067-72.796V268.413z M341.333,244.001c35.692,49.436,92.634,79.112,153.6,80.051
			v47.558c-11.11,9.12-59.473,43.059-153.6,38.362V244.001z M494.933,194.733v112.26c-107.439-4.039-148.001-83.291-153.6-95.482
			v-1.58c7.39-14.028,14.407-28.251,20.367-41.837L494.933,194.733z M267.158,17.067c52.6,0,95.4,40.067,95.4,89.308
			c0,20.111-16.845,58.758-37.509,97.835c-0.038,0.084-0.092,0.154-0.127,0.24c-16.95,31.992-35.514,63.102-55.622,93.209
			c-0.526,0.639-1.31,1.008-2.138,1.008s-1.611-0.37-2.138-1.008c-32.525-47.817-93.267-153.025-93.267-191.283
			C171.758,57.133,214.558,17.067,267.158,17.067z M250.908,307.258c3.708,5.311,9.777,8.475,16.254,8.475
			c6.477,0,12.546-3.164,16.254-8.475c7.851-11.55,23.995-36.816,40.85-66.295v167.791c-65.207-6.883-79.534-33.996-98.85-70.979
			c-11.834-24.926-27.421-47.891-46.217-68.092V194.65l5.364-1.13C204.442,232.694,226.595,270.671,250.908,307.258L250.908,307.258
			z M162.133,194.658v60.004c-51.049-36.907-113.898-18.302-145.067-4.954v-85.592L162.133,194.658z M17.067,354.625
			c30.072,8.898,94.276,31.966,145.067,77.447v60.878L17.067,462.408V354.625z M179.2,448.717
			c10.824,11.678,20.333,24.509,28.355,38.263l-28.355,5.97V448.717z M341.333,462.342v-35.205
			c6.171,0.298,12.227,0.497,18.025,0.497c71.208,0,114.813-21.171,135.575-34.851v100.276L341.333,462.342z"/>
		<path d="M318.358,107.458c0-28.277-22.923-51.2-51.2-51.2c-28.277,0-51.2,22.923-51.2,51.2s22.923,51.2,51.2,51.2
			C295.423,158.627,318.327,135.722,318.358,107.458z M233.025,107.458c0-18.851,15.282-34.133,34.133-34.133
			s34.133,15.282,34.133,34.133s-15.282,34.133-34.133,34.133C248.315,141.573,233.044,126.302,233.025,107.458L233.025,107.458z"/>
	</g>
</g>
<g>
</g>
<g>
</g>
<g>
</g>
<g>
</g>
<g>
</g>
<g>
</g>
<g>
</g>
<g>
</g>
<g>
</g>
<g>
</g>
<g>
</g>
<g>
</g>
<g>
</g>
<g>
</g>
<g>
</g>
</svg>
