<svg id="Capa_1" enable-background="new 0 0 512 512" height="512" viewBox="0 0 512 512" width="512" xmlns="http://www.w3.org/2000/svg"><g><path d="m206.473 187.73 16.426 3.581c.544.119 1.086.175 1.621.175 3.482 0 6.617-2.418 7.389-5.96.89-4.086-1.699-8.12-5.784-9.01l-16.426-3.581c-4.091-.89-8.119 1.7-9.01 5.784-.891 4.087 1.698 8.121 5.784 9.011z"/><path d="m292.142 191.487c.533 0 1.077-.057 1.62-.175l16.426-3.581c4.086-.89 6.675-4.924 5.784-9.01-.89-4.084-4.921-6.677-9.01-5.784l-16.426 3.581c-4.086.89-6.675 4.924-5.784 9.01.772 3.541 3.907 5.959 7.39 5.959z"/><path d="m482.782 446.186h-6.198l-15.49-82.241c-5.165-27.482-16.816-51.225-33.695-68.66-13.502-13.948-29.544-22.773-46.084-25.547 3.737-7.787 8.043-15.417 12.299-22.954 11.386-20.163 22.141-39.209 21.827-59.836-.774-48.949-19.665-96.232-53.195-133.14-30.61-33.693-69.458-53.808-103.916-53.808-34.053 0-72.553 19.739-102.99 52.802-2.831 3.077-2.633 7.866.443 10.698 3.074 2.831 7.865 2.634 10.698-.442 27.619-30.004 61.955-47.916 91.849-47.916 59.987 0 132.921 69.423 141.208 158.202-10.074-24.156-27.32-42.64-51.089-54.391-32.082-15.872-60.718-23.265-90.12-23.265-29.393 0-58.037 7.392-90.145 23.264-24.34 12.031-41.464 30.787-51.217 55.991 2.539-30.594 12.796-60.364 29.996-86.763 2.283-3.504 1.293-8.194-2.211-10.476-3.503-2.282-8.193-1.294-10.477 2.21-21.048 32.306-32.478 69.319-33.055 107.033-.324 20.26 8.113 39.196 17.045 59.244 3.41 7.654 6.863 15.405 9.845 23.333-38.555 5.845-71.918 43.749-81.466 94.42l-15.464 82.242h-1.962c-14.235 0-25.816 11.594-25.816 25.845v14.153c0 14.235 11.581 25.816 25.816 25.816h453.564c14.235 0 25.816-11.581 25.816-25.816v-14.154c0-14.25-11.581-25.844-25.816-25.844zm-36.57-79.441 14.963 79.441h-73.578l10.539-120.902c.432-5.127-1.304-10.1-4.89-14-3.788-4.121-9.148-6.484-14.705-6.484h-7.971c.641-7.025 2.32-13.877 4.673-20.592 33.029 3.203 62.394 36.908 70.969 82.537zm-97.731-156.473c.875-2.565 1.636-5.14 2.241-7.716 1.27-5.311 1.942-11.079 1.942-16.681v-47.07c23.964 15.909 37.822 40.974 41.28 74.688-3.664 8.396-8.521 17.003-13.515 25.846-10.941 19.374-23.204 41.104-25.048 65.46h-44.491v-43.032c17.192-13.721 30.986-32.233 37.549-51.369.012-.042.029-.083.042-.126zm-73.68 54.905c-6.605 2.383-12.177 3.641-17.494 3.945-5.339-.306-10.92-1.563-17.519-3.944-21.957-7.933-42.12-26.426-53.147-47.407 7.137.867 14.35 1.309 21.514 1.309 11.879 0 23.624-1.193 34.651-3.577 3.193-.683 10.087-3.38 15.519-7.898 5.434 4.524 12.331 7.217 15.513 7.894 17.54 3.793 36.246 4.555 54.81 2.306-11.263 20.727-31.916 39.448-53.847 47.372zm20.945 6.893v32.729h-76.906v-32.799c5.124 2.964 10.417 5.474 15.806 7.421 8.211 2.962 15.293 4.502 22.29 4.845.123.006.247.009.371.009s.248-.003.371-.009c6.975-.342 14.048-1.882 22.265-4.846 5.389-1.948 10.681-4.43 15.803-7.35zm-117.602-141.107c28.618-13.709 54.19-20.132 80.186-20.132 25.709 0 50.988 6.274 79.191 19.666v18.649h-159.377zm0 33.324h159.377v21.588c0 4.434-.528 8.984-1.533 13.187-.192.815-.403 1.631-.63 2.447-19.664 3.476-39.736 3.21-58.345-.815-3.862-.822-10.436-5.045-11.153-7.121-.059-.261-.131-.519-.217-.772-1.117-3.303-4.312-5.465-7.79-5.249-3.413.21-6.288 2.661-7.048 5.985-.762 2.13-7.318 6.336-11.185 7.163-18.383 3.975-39.809 4.24-59.476.806-.216-.792-.423-1.585-.609-2.379-.924-3.945-1.392-7.791-1.392-11.432v-23.408zm-55.137 54.229c2.706-35.977 16.137-62.48 39.995-78.996v48.174c0 4.802.602 9.81 1.792 14.893.603 2.564 1.355 5.124 2.217 7.674.018.059.04.116.059.174 6.484 19.058 19.917 37.428 36.627 51.067v43.297h-52.016c-1.418-23.989-11.019-45.547-19.584-64.771-3.262-7.322-6.443-14.481-9.09-21.512zm-61.482 148.23c4.548-24.134 15.236-45.77 30.096-60.922 12.303-12.545 26.778-20.08 41.289-21.634 1.821 6.702 3.111 13.558 3.596 20.609h-.461c-5.547 0-10.896 2.358-14.675 6.47-3.587 3.902-5.324 8.879-4.892 13.998l9.928 120.919h-79.819zm431.931 119.438c0 5.886-4.789 10.674-10.674 10.674h-453.564c-5.885 0-10.674-4.789-10.674-10.674v-14.154c0-5.901 4.789-10.703 10.674-10.703h210.583c4.181 0 7.571-3.39 7.571-7.571s-3.39-7.571-7.571-7.571h-98.203l-10.031-122.175c-.094-1.106.465-1.967.95-2.495.906-.986 2.225-1.575 3.527-1.575h75.224 92.049 75.224c1.293 0 2.655.609 3.557 1.589.484.527 1.042 1.384.951 2.459l-10.651 122.196h-98.977c-4.181 0-7.571 3.39-7.571 7.571s3.39 7.571 7.571 7.571h196.843c.011 0 .022.001.033.001.01 0 .021-.001.031-.001h12.453c5.885 0 10.674 4.801 10.674 10.703v14.155z"/><path d="m296.935 383.078c0-18.545-17.777-33.632-39.627-33.632s-39.627 15.087-39.627 33.632c0 18.529 17.777 33.603 39.627 33.603s39.627-15.074 39.627-33.603zm-39.628 18.461c-13.273 0-24.485-8.454-24.485-18.461 0-10.023 11.213-18.49 24.485-18.49 13.273 0 24.485 8.467 24.485 18.49 0 10.007-11.212 18.461-24.485 18.461z"/></g></svg>