<svg height="487pt" viewBox="0 -1 487.21445 487" width="487pt" xmlns="http://www.w3.org/2000/svg"><path d="m338.558594 113.175781c-3.3125 0-6-2.683593-6-6v-68c0-3.3125 2.6875-6 6-6 3.316406 0 6 2.6875 6 6v68c0 3.316407-2.683594 6-6 6zm0 0" fill="#a4c9ff"/><path d="m284.386719 364.726562 46.578125-29.53125c2.726562-1.726562 3.53125-5.335937 1.804687-8.0625l-.574219-.90625c-1.730468-2.726562-5.339843-3.535156-8.066406-1.808593l-53.09375 33.664062 2.699219 4.257813c2.28125 3.601562 7.050781 4.667968 10.652344 2.386718zm0 0" fill="#f9a7a7"/><path d="m165.476562 49.964844c18.722657 0 33.898438 15.175781 33.898438 33.898437v19.898438h1.648438c2.910156 0 5.265624 2.355469 5.265624 5.261719 0 2.910156-2.359374 5.265624-5.265624 5.265624h-2.570313c-2.917969 12.546876-12.765625 22.433594-25.320313 25.335938v4.660156c-2.832031-.960937-5.855468-1.5-9.011718-1.5h-17.089844c-1.21875 0-2.410156.121094-3.578125.304688v-10.730469c-7.265625-6.214844-11.875-15.445313-11.875-25.757813v-22.742187c-.003906-18.71875 15.175781-33.894531 33.898437-33.894531zm0 0" fill="#f9cfcf"/><path d="m78.238281 145.734375h38.171875c4.363282 0 7.898438 3.535156 7.898438 7.898437v61.332032c-5.027344 3.871094-9.59375 8.308594-13.59375 13.230468v-68.867187h-32.476563c-3.753906 0-6.796875-3.039063-6.796875-6.792969 0-3.757812 3.042969-6.800781 6.796875-6.800781zm0 0" fill="#f9a7a7"/><path d="m110.710938 232.191406c-.449219 0-.902344-.074218-1.339844-.226562-1.59375-.570313-2.660156-2.078125-2.660156-3.773438v-64.863281h-28.472657c-5.953125 0-10.796875-4.84375-10.796875-10.792969 0-5.953125 4.84375-10.796875 10.796875-10.796875h38.171875c6.558594 0 11.894532 5.335938 11.894532 11.894531v61.332032c0 1.238281-.574219 2.410156-1.558594 3.167968-4.789063 3.691407-9.140625 7.925782-12.929688 12.585938-.773437.953125-1.925781 1.472656-3.105468 1.472656zm-32.472657-82.457031c-1.542969 0-2.796875 1.253906-2.796875 2.796875s1.253906 2.796875 2.796875 2.796875h32.472657c2.210937 0 4 1.792969 4 4v58.625c1.792968-1.71875 3.660156-3.367187 5.59375-4.929687v-59.390626c0-2.148437-1.746094-3.894531-3.894532-3.894531h-38.171875zm46.066407 65.230469h.019531zm0 0" fill="#3762cc"/><path d="m186.980469 104.039062c1.726562 0 3.125-1.402343 3.125-3.128906v-5.207031c0-1.726563-1.398438-3.128906-3.125-3.128906-1.726563 0-3.125 1.402343-3.125 3.128906v5.207031c0 1.726563 1.398437 3.128906 3.125 3.128906zm0 0" fill="#3762cc"/><path d="m293.367188 314.34375 21.5625-3.671875c1.910156-.328125 3.847656.390625 5.140624 1.902344l3.726563 4.351562c.933594 1.09375 1.457031 2.515625 1.457031 3.984375 0 2.097656-1.054687 4.042969-2.769531 5.121094l-33.542969 21.03125c-1.894531 1.1875-4.140625 1.601562-6.308594 1.167969-2.621093-.53125-4.882812-2.253907-6.171874-4.710938l-3.78125-7.195312c-1.136719-2.164063-.59375-4.878907 1.277343-6.382813zm0 0" fill="#a4c9ff"/><path d="m284.339844 352.398438c-.832032 0-1.664063-.082032-2.496094-.25-3.816406-.765626-7.070312-3.234376-8.921875-6.765626l-3.78125-7.199218c-2.035156-3.871094-1.0625-8.648438 2.308594-11.359375l19.410156-15.597657c.53125-.425781 1.164063-.710937 1.835937-.828124l21.5625-3.671876c3.320313-.554687 6.628907.648438 8.851563 3.246094l3.726563 4.351563c1.558593 1.820312 2.417968 4.160156 2.417968 6.585937 0 3.453125-1.78125 6.714844-4.644531 8.507813l-33.542969 21.035156c-2.046875 1.28125-4.371094 1.945313-6.726562 1.945313zm10.722656-34.289063-18.597656 14.949219c-.378906.300781-.488282.933594-.242188 1.40625l3.78125 7.195312c.726563 1.390625 1.976563 2.355469 3.421875 2.648438 1.167969.234375 2.367188.007812 3.390625-.636719l33.542969-21.027344c.546875-.347656.894531-1.007812.894531-1.730469 0-.519531-.175781-1.011718-.496094-1.386718l-3.726562-4.351563c-.378906-.441406-.914062-.652343-1.429688-.5625zm0 0" fill="#3762cc"/><path d="m229.9375 229.949219c6.882812 0 13.632812 2.066406 19.523438 5.972656 5.449218 3.617187 9.976562 8.6875 13.160156 14.738281v.003906l34.441406 60.40625c.6875 1.207032.425781 2.789063-.601562 3.65625l-21.851563 18.425782c-1.152344.972656-2.808594.675781-3.621094-.648438l-28.84375-46.992187-3.117187-4.738281c-1.417969-2.152344-3.691406-3.429688-6.117188-3.429688h-86.949218c-11.957032 0-21.65625-10.640625-21.65625-23.769531v-23.621094h105.632812zm0 0" fill="#4671c6"/><path d="m273.074219 337.722656c-.335938 0-.667969-.027344-1-.078125-1.851563-.300781-3.488281-1.410156-4.492188-3.046875l-28.84375-46.996094-3.046875-4.628906c-.671875-1.019531-1.710937-1.628906-2.777344-1.628906h-86.953124c-14.148438 0-25.65625-12.457031-25.65625-27.769531v-23.628907c0-2.207031 1.792968-4 4-4h105.632812c7.667969 0 15.183594 2.296876 21.734375 6.640626 5.988281 3.976562 11 9.582031 14.484375 16.210937l34.378906 60.289063c1.628906 2.859374.988282 6.597656-1.496094 8.691406l-21.855468 18.429687c-1.164063.984375-2.625 1.515625-4.109375 1.515625zm-144.769531-103.777344v19.625c0 10.902344 7.921874 19.769532 17.65625 19.769532h86.949218c3.769532 0 7.300782 1.957031 9.460938 5.230468l3.117187 4.738282 27.976563 45.578125 19.6875-16.605469-34.003906-59.640625c-2.929688-5.5625-7.023438-10.148437-11.898438-13.386719-5.230469-3.46875-11.21875-5.304687-17.3125-5.304687h-101.632812zm165.285156 79.101563h.019531zm0 0" fill="#3762cc"/><path d="m145.71875 277.339844h46.554688v-107.1875c0-15.113282-12.25-27.367188-27.367188-27.367188h-18.519531c-12.195313 0-22.082031 9.886719-22.082031 22.085938v91.054687c0 11.828125 9.585937 21.414063 21.414062 21.414063zm0 0" fill="#6bdddd"/><path d="m192.277344 281.339844h-46.558594c-14.011719 0-25.414062-11.398438-25.414062-25.414063v-91.054687c0-14.386719 11.703124-26.085938 26.082031-26.085938h18.519531c17.292969 0 31.367188 14.070313 31.367188 31.367188v107.191406c.003906 2.207031-1.789063 3.996094-3.996094 3.996094zm-45.886719-134.554688c-9.972656 0-18.085937 8.113282-18.085937 18.082032v91.058593c0 9.601563 7.8125 17.414063 17.414062 17.414063h42.558594v-103.1875c0-12.886719-10.484375-23.367188-23.367188-23.367188zm0 0" fill="#3762cc"/><path d="m250.28125 285.003906c0 45.066406-36.535156 81.601563-81.601562 81.601563-45.070313 0-81.605469-36.535157-81.605469-81.601563s36.535156-81.601562 81.605469-81.601562c45.066406 0 81.601562 36.535156 81.601562 81.601562zm0 0" fill="#ffea92"/><path d="m168.679688 370.605469c-47.203126 0-85.605469-38.398438-85.605469-85.601563 0-47.199218 38.402343-85.601562 85.605469-85.601562 47.199218 0 85.601562 38.402344 85.601562 85.601562 0 47.203125-38.402344 85.601563-85.601562 85.601563zm0-163.207031c-42.792969 0-77.605469 34.8125-77.605469 77.605468 0 42.789063 34.8125 77.601563 77.605469 77.601563 42.789062 0 77.601562-34.8125 77.601562-77.601563 0-42.789062-34.8125-77.605468-77.601562-77.605468zm0 0" fill="#3762cc"/><path d="m231.953125 285.003906c0 34.945313-28.328125 63.273438-63.273437 63.273438-34.945313 0-63.277344-28.328125-63.277344-63.273438 0-34.945312 28.332031-63.273437 63.277344-63.273437 34.945312 0 63.273437 28.328125 63.273437 63.273437zm0 0" fill="#a4c9ff"/><path d="m172.203125 104.746094c0 6.628906-5.371094 12.003906-12 12.003906s-12.003906-5.375-12.003906-12.003906 5.375-12 12.003906-12 12 5.371094 12 12zm0 0" fill="#f9cfcf"/><path d="m173.128906 148.285156c-.429687 0-.859375-.070312-1.277344-.210937-2.535156-.855469-5.136718-1.289063-7.734374-1.289063h-17.085938c-.882812 0-1.847656.082032-2.953125.257813-1.164063.183593-2.335937-.148438-3.222656-.90625-.890625-.761719-1.402344-1.875-1.402344-3.042969v-8.949219c-7.570313-7.15625-11.878906-17.085937-11.878906-27.542969v-22.738281c0-20.898437 17.003906-37.898437 37.902343-37.898437 20.898438 0 37.898438 17 37.898438 37.898437v16.199219c3.976562 1.042969 6.914062 4.667969 6.914062 8.960938 0 4.957031-3.90625 9.011718-8.796874 9.253906-3.738282 11.5-12.886719 20.65625-24.359376 24.382812v1.625c0 1.289063-.621093 2.496094-1.667968 3.25-.691406.492188-1.507813.75-2.335938.75zm-25.675781-9.5h16.664063c1.683593 0 3.367187.132813 5.035156.402344.183594-1.675781 1.40625-3.078125 3.078125-3.460938 10.996093-2.542968 19.757812-11.3125 22.324219-22.34375.417968-1.8125 2.035156-3.09375 3.894531-3.09375h2.574219c.699218 0 1.265624-.566406 1.265624-1.265624 0-.695313-.570312-1.261719-1.265624-1.261719h-1.648438c-2.207031 0-4-1.792969-4-4v-19.898438c0-16.484375-13.414062-29.898437-29.898438-29.898437-16.488281 0-29.902343 13.414062-29.902343 29.898437v22.738281c0 8.742188 3.820312 17.023438 10.476562 22.722657.890625.757812 1.402344 1.867187 1.402344 3.039062zm0 0" fill="#3762cc"/><path d="m125.496094 60.570312.003906.003907c6.046875-9.238281 16.855469-15.398438 29.183594-15.398438 2.625 0 4.75 2.011719 4.75 4.496094v.941406c0-1.109375.339844-2.140625.921875-3 0 0 .164062-.332031.644531-.785156.636719-.644531 1.433594-1.136719 2.328125-1.410156 1.257813-.503907 3.015625-.917969 5.433594-1.019531v-.003907h.011719c2.511718-.101562 5.738281.128907 9.875.96875 3.011718.328125 5.886718 1.097657 8.5625 2.238281.007812.003907.019531.003907.027343.007813v.003906c1.519531.648438 2.96875 1.425781 4.34375 2.300781.597657.363282.898438.59375.898438.59375 7.722656 5.328126 12.777343 14.140626 12.777343 24.121094v10.792969c0 .5-.414062.90625-.921874.90625h-44.902344v32.230469l-5.414063 11.050781c-.152343.3125-.476562.511719-.828125.511719h-14.066406c-1.421875 0-2.820312-.203125-4.15625-.585938-.039062-.019531-1.464844-.621094-2.046875-1.546875-1.367187-2.183593-4.582031-7.339843-7.511719-12.046875-4.34375-6.984375-6.808594-14.960937-7.003906-23.148437-.535156-22.425781 7.089844-32.222657 7.089844-32.222657zm0 0" fill="#4671c6"/><path d="m153.1875 134.125h-14.066406c-1.777344 0-3.546875-.25-5.257813-.742188-.136719-.039062-.265625-.085937-.398437-.136718-.621094-.253906-2.742188-1.222656-3.9375-3.132813-1.367188-2.191406-4.585938-7.347656-7.515625-12.054687-4.769531-7.667969-7.398438-16.375-7.609375-25.167969-.539063-22.667969 6.96875-33.476563 7.863281-34.679687 7.066406-10.671876 19.167969-17.035157 32.414063-17.035157 1.875 0 3.613281.574219 5.039062 1.550781.691406-.449218 1.460938-.820312 2.269531-1.082031 1.859375-.722656 4.078125-1.140625 6.597657-1.246093.023437 0 .042968-.003907.066406-.003907 3.070312-.125 6.632812.214844 10.613281 1.011719 3.265625.375 6.449219 1.214844 9.460937 2.496094.046876.015625.09375.035156.140626.058594 1.667968.714843 3.304687 1.585937 4.863281 2.582031.570312.347656.941406.613281 1.082031.714843 9.042969 6.269532 14.441406 16.496094 14.441406 27.371094v10.792969c0 2.707031-2.210937 4.90625-4.921875 4.90625h-40.898437v28.230469c0 .609375-.140625 1.210937-.410156 1.757812l-5.414063 11.050782c-.816406 1.675781-2.554687 2.757812-4.421875 2.757812zm-16.816406-8.351562c.898437.234374 1.824218.351562 2.75.351562h12.148437l4.160157-8.492188v-31.300781c0-2.207031 1.792968-4 4-4h41.820312v-7.703125c0-8.269531-4.128906-16.054687-11.042969-20.824218-.042969-.03125-.085937-.0625-.128906-.089844-.027344-.023438-.21875-.164063-.582031-.382813-1.28125-.816406-2.546875-1.488281-3.835938-2.039062-.015625-.007813-.035156-.015625-.054687-.027344-2.351563-1-4.839844-1.644531-7.394531-1.925781-.121094-.011719-.242188-.03125-.359376-.054688-3.4375-.695312-6.421874-.992187-8.914062-.890625-.066406.003907-.132812.007813-.203125.003907-1.914063.085937-3.207031.445312-3.921875.734374-.105469.042969-.210938.082032-.324219.113282-.242187.074218-.464843.210937-.648437.398437-.128906.125-.042969.027344.101562-.265625-.082031.164063-.171875.316406-.273437.46875-.15625.234375-.238281.492188-.238281.765625 0 2.210938-1.792969 4-4 4-2.207032 0-4-1.789062-4-4v-.941406c0-.207031-.285157-.496094-.75-.496094-10.609376 0-20.265626 5.082031-25.835938 13.589844-.070312.109375-.144531.210937-.226562.3125-.65625.945313-6.675782 10.191406-6.214844 29.625.175781 7.367187 2.390625 14.675781 6.40625 21.128906 2.832031 4.558594 5.9375 9.53125 7.375 11.828125.050781.035156.117187.078125.1875.113282zm-.273438-.175782" fill="#3762cc"/><path d="m172.203125 104.746094c0 6.628906-5.371094 12.003906-12 12.003906s-12.003906-5.375-12.003906-12.003906 5.375-12 12.003906-12 12 5.371094 12 12zm0 0" fill="#f9cfcf"/><path d="m280.273438 369.921875c-3.886719 0-7.6875-1.921875-9.917969-5.4375l-2.699219-4.257813c-.566406-.898437-.757812-1.984374-.527344-3.015624.230469-1.035157.867188-1.9375 1.761719-2.503907l53.097656-33.664062c2.21875-1.410157 4.859375-1.867188 7.421875-1.292969 2.566406.574219 4.753906 2.113281 6.160156 4.332031l.578126.910157c2.90625 4.582031 1.542968 10.675781-3.042969 13.585937l-46.574219 29.527344c-1.941406 1.230469-4.117188 1.816406-6.257812 1.816406zm4.113281-5.195313h.019531zm-7.832031-5.40625.558593.875c1.097657 1.734376 3.394531 2.25 5.132813 1.152344l46.574218-29.527344c.859376-.546874 1.117188-1.6875.570313-2.546874l-.574219-.910157c-.542968-.855469-1.683594-1.109375-2.542968-.566406zm0 0" fill="#3762cc"/><path d="m168.679688 352.277344c-37.097657 0-67.277344-30.179688-67.277344-67.273438 0-37.097656 30.179687-67.277344 67.277344-67.277344 37.09375 0 67.273437 30.179688 67.273437 67.277344 0 37.09375-30.179687 67.273438-67.273437 67.273438zm0-126.546875c-32.6875 0-59.277344 26.589843-59.277344 59.273437s26.589844 59.273438 59.277344 59.273438c32.683593 0 59.273437-26.589844 59.273437-59.273438s-26.589844-59.273437-59.273437-59.273437zm0 0" fill="#3762cc"/><path d="m168.679688 315.003906c-16.542969 0-30.003907-13.457031-30.003907-30 0-16.542968 13.457031-30.003906 30.003907-30.003906 16.542968 0 30 13.460938 30 30.003906 0 16.542969-13.460938 30-30 30zm0 0" fill="#e0ebfc"/><path d="m87.773438 270.890625 5.792968-15.140625 23.578125-71.550781c0 .003906 0 .003906.003907.003906l22.550781 19.910156c.113281.101563.238281.1875.363281.265625l-26.519531 57.351563-.578125 17.304687c-.019532.617188-.136719 1.230469-.339844 1.8125l-1.539062 4.347656c-1.007813 2.839844-3.945313 4.507813-6.894532 3.90625l-11.929687-2.414062c-2.785157-.558594-4.796875-2.984375-4.84375-5.820312l-.121094-7.273438c-.015625-.921875.148437-1.839844.476563-2.703125zm0 0" fill="#f9cfcf"/><path d="m105.367188 293.222656c-.652344 0-1.3125-.0625-1.972657-.199218l-11.925781-2.414063c-4.585938-.929687-7.972656-5-8.046875-9.675781l-.121094-7.273438c-.023437-1.4375.222657-2.851562.738281-4.195312l5.792969-15.144532 23.515625-71.375c.503906-1.539062 1.890625-2.617187 3.507813-2.734374 1.117187-.074219 2.210937.316406 3.011719 1.054687l22.378906 19.761719c1.609375 1.101562 2.269531 3.25 1.449218 5.027344l-26.179687 56.617187-.550781 16.496094c-.03125 1.023437-.226563 2.039062-.566406 3.007812l-1.542969 4.355469c-1.433594 4.054688-5.3125 6.691406-9.488281 6.691406zm13.675781-102.007812-21.679688 65.785156-5.851562 15.320312c-.148438.390626-.222657.792969-.214844 1.207032l.121094 7.277344c.015625.949218.707031 1.777343 1.636719 1.964843l11.929687 2.414063c.996094.203125 1.992187-.363282 2.332031-1.320313l1.539063-4.347656c.070312-.199219.109375-.40625.117187-.613281l.578125-17.304688c.015625-.535156.140625-1.058594.367188-1.542968l25.25-54.605469zm-31.269531 79.675781h.019531zm0 0" fill="#3762cc"/><path d="m117.148438 184.203125 22.550781 19.910156c1.089843.964844 2.753906.859375 3.714843-.230469l28.015626-31.726562c6.460937-7.320312 5.765624-18.488281-1.550782-24.949219-7.320312-6.460937-18.488281-5.765625-24.949218 1.550781l-28.011719 31.730469c-.964844 1.089844-.859375 2.753907.230469 3.714844zm0 0" fill="#6bdddd"/><path d="m141.433594 208.773438c-1.617188 0-3.15625-.582032-4.378906-1.660157l-22.550782-19.910156c-2.742187-2.421875-3-6.621094-.582031-9.363281l28.011719-31.726563c3.832031-4.339843 9.125-6.929687 14.90625-7.289062 5.765625-.359375 11.347656 1.554687 15.6875 5.386719 8.957031 7.910156 9.8125 21.632812 1.902344 30.59375l-28.011719 31.726562c-1.171875 1.328125-2.792969 2.121094-4.558594 2.230469-.144531.007812-.285156.011719-.425781.011719zm-20.613282-26.664063 20.5 18.101563 27.109376-30.703126c4.992187-5.652343 4.453124-14.3125-1.199219-19.300781-5.652344-4.988281-14.3125-4.453125-19.300781 1.199219zm0 0" fill="#3762cc"/><path d="m271.035156 358.082031 10.765625-6.824219-32.878906-51.484374c-1.03125 5.648437-2.636719 11.09375-4.769531 16.269531l28.746094 45.011719.011718-.007813zm0 0" fill="#e0ebfc"/><path d="m272.898438 365.050781c-.261719 0-.523438-.027343-.78125-.078125-1.066407-.214844-2.003907-.847656-2.589844-1.765625l-28.746094-45.011719c-.703125-1.097656-.824219-2.46875-.328125-3.675781 2.035156-4.941406 3.5625-10.144531 4.535156-15.464843.296875-1.621094 1.550781-2.890626 3.164063-3.207032 1.613281-.316406 3.253906.386719 4.140625 1.773438l32.878906 51.480468c.570313.894532.765625 1.984376.535156 3.023438-.230469 1.035156-.863281 1.9375-1.761719 2.507812l-7.414062 4.703126c.828125 1.746093.285156 3.871093-1.339844 5-.675781.46875-1.480468.714843-2.292968.714843zm-24.273438-49.4375 23.609375 36.972657 4.035156-2.558594-25.667969-40.191406c-.589843 1.953124-1.25 3.882812-1.976562 5.777343zm0 0" fill="#3762cc"/><path d="m416.558594 184.832031c0 43.078125-34.921875 78-78 78s-78-34.921875-78-78 34.921875-78 78-78 78 34.921875 78 78zm0 0" fill="#eaa97d"/><path d="m397.601562 160.378906c-13.503906-32.601562-50.882812-48.082031-83.480468-34.578125-32.601563 13.503907-48.085938 50.878907-34.582032 83.480469 13.507813 32.601562 50.882813 48.082031 83.484376 34.578125 32.601562-13.503906 48.082031-50.878906 34.578124-83.480469zm0 0" fill="#ffea92"/><path d="m333.375 226.683594c-11.410156-1.722656-19.679688-8.789063-20.613281-20.339844-.101563-1.199219.875-2.226562 2.085937-2.226562h9.027344c1.03125 0 1.886719.761718 2.058594 1.777343.683594 4.015625 2.695312 7.15625 6.191406 8.816407 1.394531.664062 3.011719-.332032 3.011719-1.878907v-21.808593c0-.933594-.621094-1.753907-1.523438-2.007813-10.257812-2.902344-20.941406-6.691406-20.941406-22.714844 0-12.769531 8.402344-21.722656 20.71875-23.640625 1.007813-.15625 1.746094-1.03125 1.746094-2.050781v-5.867187c0-1.152344.933593-2.085938 2.085937-2.085938h2.78125c1.152344 0 2.085938.933594 2.085938 2.085938v5.742187c0 1.015625.734375 1.898437 1.742187 2.050781 10.625 1.605469 17.972657 8.222656 19.613281 19.605469.179688 1.25-.808593 2.371094-2.070312 2.371094h-8.945312c-1 0-1.828126-.714844-2.046876-1.691407-.667968-3-2.378906-5.71875-5.027343-7.453124-1.402344-.921876-3.265625.050781-3.265625 1.726562v20.972656c0 .941406.632812 1.765625 1.539062 2.011719 10.246094 2.789063 20.816406 6.476563 20.816406 22.492187 0 11.097657-7.28125 21.863282-20.617187 23.992188-1.003906.160156-1.742187 1.03125-1.742187 2.046875v5.871094c0 1.152343-.933594 2.085937-2.085938 2.085937h-2.78125c-1.152344 0-2.085938-.933594-2.085938-2.085937v-5.742188c0-1.023437-.742187-1.902343-1.757812-2.054687zm1.757812-52.167969v-18.339844c0-1.410156-1.386718-2.457031-2.71875-1.988281-4.40625 1.546875-7.335937 5.300781-7.335937 11.394531 0 5.644531 2.847656 8.75 7.03125 10.800781 1.394531.6875 3.023437-.3125 3.023437-1.867187zm6.957032 20.0625v18.316406c0 1.511719 1.558594 2.507813 2.949218 1.90625 4.570313-1.988281 7.105469-6.335937 7.105469-11.515625 0-5.554687-2.851562-8.5625-7.042969-10.582031-1.394531-.671875-3.011718.328125-3.011718 1.875zm0 0" fill="#4671c6"/><path d="m338.558594 266.832031c-45.210938 0-82-36.785156-82-82 0-45.214843 36.789062-82 82-82 45.214844 0 82 36.785157 82 82 0 45.214844-36.785156 82-82 82zm0-156c-40.800782 0-74 33.195313-74 74 0 40.804688 33.199218 74 74 74 40.804687 0 74-33.195312 74-74 0-40.804687-33.195313-74-74-74zm0 0" fill="#3762cc"/><path d="m310.558594 98.25c-3.3125 0-6-2.6875-6-6v-86.144531c0-3.3125 2.6875-6 6-6 3.316406 0 6 2.6875 6 6v86.144531c0 3.3125-2.683594 6-6 6zm0 0" fill="#a4c9ff"/><path d="m366.558594 98.25c-3.3125 0-6-2.6875-6-6v-86.144531c0-3.3125 2.6875-6 6-6 3.316406 0 6 2.6875 6 6v86.144531c0 3.3125-2.683594 6-6 6zm0 0" fill="#a4c9ff"/><path d="m481.636719 371.59375c-10.300781-17.699219-33.121094-23.765625-50.972657-13.542969l-84.921874 48.625c-5.984376 3.429688-12.984376 4.644531-19.773438 3.429688l-110.792969-19.78125-15.398437-1.761719h90.921875c20.4375 0 37.007812-16.570312 37.007812-37.007812 0-6.425782-5.207031-11.632813-11.628906-11.632813h-105.117187c-7.367188 0-14.652344 1.597656-21.339844 4.683594l-68.960938 31.824219c-10.777344 4.972656-22.507812 7.546874-34.375 7.546874h-68.222656v.359376h-14.0625v96.601562h14.066406v.167969h87.964844l230.109375-20.203125c.164063-.011719.332031-.027344.5-.039063l6.691406-.546875c5.476563-.558594 10.773438-2.261718 15.550781-4.996094l118.464844-67.835937c5.609375-3.214844 7.527344-10.324219 4.289063-15.890625zm0 0" fill="#f9cfcf"/><path d="m106.03125 485.105469h-87.964844c-.398437 0-.78125-.054688-1.144531-.164063h-12.921875c-2.207031 0-4-1.792968-4-4v-96.601562c0-2.207032 1.792969-4 4-4h12.402344c.507812-.230469 1.070312-.359375 1.664062-.359375h68.21875c11.210938 0 22.519532-2.484375 32.699219-7.179688l68.960937-31.820312c7.164063-3.308594 15.125-5.058594 23.015626-5.058594h105.113281c8.621093 0 15.632812 7.011719 15.632812 15.632813 0 22.613281-18.398437 41.007812-41.007812 41.007812h-40.234375l76.207031 13.605469c5.859375 1.050781 11.921875-.003907 17.085937-2.960938l84.921876-48.625c19.714843-11.292969 45.023437-4.5625 56.414062 15 2.101562 3.613281 2.664062 7.820313 1.585938 11.851563-1.085938 4.046875-3.695313 7.429687-7.347657 9.523437l-118.464843 67.835938c-5.296876 3.03125-11.058594 4.882812-17.132813 5.503906l-7.25.589844-230.105469 20.203125c-.117187.011718-.234375.015625-.347656.015625zm-86.824219-8h86.648438l230.503906-20.230469 6.648437-.542969c4.867188-.5 9.566407-2.011719 13.886719-4.484375l118.464844-67.835937c1.789063-1.023438 3.066406-2.675781 3.59375-4.652344.523437-1.953125.25-4-.773437-5.753906-9.1875-15.777344-29.609376-21.203125-45.527344-12.085938l-84.921875 48.628907c-6.785157 3.886718-14.765625 5.269531-22.464844 3.894531l-110.667969-19.757813-15.277344-1.75c-2.105468-.238281-3.660156-2.082031-3.535156-4.203125.117188-2.117187 1.871094-3.769531 3.992188-3.769531h90.925781c18.199219 0 33.007813-14.808594 33.007813-33.007812 0-4.210938-3.421876-7.632813-7.632813-7.632813h-105.117187c-6.742188 0-13.542969 1.492187-19.667969 4.320313l-68.957031 31.820312c-11.222657 5.179688-23.691407 7.917969-36.050782 7.917969h-66.558594c-.507812.230469-1.070312.359375-1.664062.359375h-10.0625v88.597656h10.066406c.394532.003906.78125.0625 1.140625.167969zm0 0" fill="#3762cc"/></svg>